<?xml version="1.0" encoding="utf-8"?>
<!-- Generator: Adobe Illustrator 22.1.0, SVG Export Plug-In . SVG Version: 6.00 Build 0)  -->
<svg version="1.1" id="Layer_1" xmlns="http://www.w3.org/2000/svg" xmlns:xlink="http://www.w3.org/1999/xlink" x="0px" y="0px"
	 viewBox="0 0 5 1.9" style="enable-background:new 0 0 5 1.9;" xml:space="preserve">
<circle cx="0.2" cy="0.7" r="0.2"/>
<circle cx="0.7" cy="0.7" r="0.2"/>
<circle cx="1.3" cy="0.7" r="0.2"/>
<circle cx="3.7" cy="0.7" r="0.2"/>
<circle cx="4.2" cy="0.7" r="0.2"/>
<circle cx="4.8" cy="0.7" r="0.2"/>
<path d="M1.7,1.3h1.5c0,0,0.3,0.2,0.3,0.4C3.4,1.9,3.4,1.9,3.2,1.9c-0.2,0-1.6,0-1.7,0S1.4,1.8,1.4,1.7C1.4,1.7,1.6,1.3,1.7,1.3z"/>
<path d="M3.1,0c0,0-1.3,0-1.3,0C1.7,0,1.6,0.1,1.6,0.2s0,0.7,0,0.8s0,0.3,0.1,0.3s1.2,0,1.4,0s0.2-0.2,0.2-0.2s0-0.7,0-0.9
	S3.1,0,3.1,0z M2.9,1H2V0.8h0.9V1z M2.9,0.7H2V0.5h0.9V0.7z M2.9,0.4H2V0.3h0.9V0.4z"/>
</svg>
