<?xml version="1.0" encoding="utf-8"?>
<!-- Generator: Adobe Illustrator 22.1.0, SVG Export Plug-In . SVG Version: 6.00 Build 0)  -->
<svg version="1.1" id="Layer_1" xmlns="http://www.w3.org/2000/svg" xmlns:xlink="http://www.w3.org/1999/xlink" x="0px" y="0px"
	 viewBox="0 0 14 14" style="enable-background:new 0 0 14 14;" xml:space="preserve">
<g>
	<g>
		<path id="a_1_" d="M9.7,11.3c-0.8,0.8-1.6,1.6-2.6,2.2c-0.2,0.1-0.4,0.1-0.6,0c-0.3-0.2-0.5-0.4-0.8-0.6c-0.6-0.5-1.2-1-1.8-1.6
			C2.3,9.6,1.3,7.8,1.3,5.9c0-3,2.5-5.5,5.5-5.5s5.5,2.5,5.5,5.5C12.4,7.8,11.4,9.6,9.7,11.3z M7.3,12.1c0.6-0.4,1.1-1,1.7-1.5
			c1.5-1.5,2.3-3.1,2.3-4.7c0-2.4-2-4.4-4.5-4.3c-2.4,0-4.3,2-4.3,4.3c0,1.5,0.9,3.1,2.3,4.7c0.6,0.7,1.3,1.3,2.1,1.8
			C7,12.3,7.1,12.2,7.3,12.1z M6.8,8.1c-1.2,0-2.2-1-2.2-2.2s1-2.2,2.2-2.2S9,4.7,9,5.9S8.1,8.1,6.8,8.1z M6.8,7C7.4,7,8,6.5,8,5.9
			c0-0.6-0.5-1.1-1.1-1.1c0,0,0,0-0.1,0c-0.6,0-1.1,0.5-1.1,1.1C5.8,6.5,6.2,7,6.8,7z"/>
	</g>
</g>
</svg>
