<?xml version="1.0" encoding="utf-8"?>
<!-- Generator: Adobe Illustrator 22.1.0, SVG Export Plug-In . SVG Version: 6.00 Build 0)  -->
<svg version="1.1" id="Layer_1" xmlns="http://www.w3.org/2000/svg" xmlns:xlink="http://www.w3.org/1999/xlink" x="0px" y="0px"
	 viewBox="0 0 14 14" style="enable-background:new 0 0 14 14;" xml:space="preserve">
<g>
	<g>
		<path id="a_1_" d="M12.5,2h-11C0.7,2,0,2.7,0,3.5v8C0,12.3,0.7,13,1.5,13h11c0.8,0,1.5-0.7,1.5-1.5v-8C14,2.7,13.3,2,12.5,2z
			 M11.8,3L7,6.4L2.3,3H11.8z M13,11.5c0,0.3-0.2,0.5-0.5,0.5h-11C1.2,12,1,11.8,1,11.5v-8c0-0.1,0-0.1,0-0.2l6,4.3l6-4.3
			c0,0,0,0.1,0,0.1V11.5z"/>
	</g>
</g>
</svg>
