<?xml version="1.0" encoding="utf-8"?>
<!-- Generator: Adobe Illustrator 22.1.0, SVG Export Plug-In . SVG Version: 6.00 Build 0)  -->
<svg version="1.1" id="Layer_1" xmlns="http://www.w3.org/2000/svg" xmlns:xlink="http://www.w3.org/1999/xlink" x="0px" y="0px"
	 viewBox="0 0 14 14" style="enable-background:new 0 0 14 14;" xml:space="preserve">
<g>
	<g>
		<path id="a_1_" d="M7.7,10.8l2.9-2.9c0.3-0.3,0.7-0.2,0.9,0c0.2,0.3,0.2,0.7,0,0.9l-4,4c-0.3,0.3-0.7,0.3-0.9,0l-4-4
			c-0.3-0.3-0.2-0.7,0-0.9c0.3-0.2,0.7-0.2,0.9,0l2.9,2.9V1.7C6.3,1.3,6.6,1,7,1c0.4,0,0.7,0.3,0.7,0.6c0,0,0,0,0,0V10.8z"/>
	</g>
</g>
</svg>
