<?xml version="1.0" encoding="utf-8"?>
<!-- Generator: Adobe Illustrator 22.1.0, SVG Export Plug-In . SVG Version: 6.00 Build 0)  -->
<svg version="1.1" id="Layer_1" xmlns="http://www.w3.org/2000/svg" xmlns:xlink="http://www.w3.org/1999/xlink" x="0px" y="0px"
	 viewBox="0 0 14 14" style="enable-background:new 0 0 14 14;" xml:space="preserve">
<g>
	<g>
		<path id="a_1_" d="M8,7l3.8,3.8c0.3,0.3,0.3,0.7,0,1s-0.7,0.3-1,0L7,8l-3.8,3.8c-0.3,0.3-0.7,0.3-1,0s-0.3-0.7,0-1L6,7L2.2,3.2
			c-0.3-0.3-0.3-0.7,0-1s0.7-0.3,1,0L7,6l3.8-3.8c0.3-0.3,0.7-0.3,1,0s0.3,0.7,0,1L8,7z"/>
	</g>
</g>
</svg>
